<?xml version="1.0" standalone="no"?>
<!DOCTYPE svg PUBLIC "-//W3C//DTD SVG 20010904//EN"
 "http://www.w3.org/TR/2001/REC-SVG-20010904/DTD/svg10.dtd">
<svg version="1.0" xmlns="http://www.w3.org/2000/svg"
 width="1600.000000pt" height="1600.000000pt" viewBox="0 0 1600.000000 1600.000000"
 preserveAspectRatio="xMidYMid meet">
<metadata>
Created by potrace 1.14, written by Peter Selinger 2001-2017
</metadata>
<g transform="translate(0.000000,1600.000000) scale(0.100000,-0.100000)"
fill="#000000" stroke="none">
<path d="M9734 14406 c-62 -27 -64 -36 -64 -293 0 -221 1 -234 20 -253 12 -12
32 -25 46 -30 14 -6 131 -10 260 -10 249 0 291 6 313 48 12 22 16 449 5 489
-4 13 -23 31 -48 43 -39 18 -61 20 -272 20 -170 -1 -237 -4 -260 -14z"/>
<path d="M11579 14405 c-189 -26 -340 -97 -460 -215 -145 -143 -217 -322 -236
-580 l-6 -90 -163 0 c-169 0 -199 -5 -234 -40 -19 -19 -20 -32 -20 -204 0
-182 0 -183 25 -208 32 -32 67 -38 248 -38 l147 0 0 -791 c0 -875 -3 -836 63
-859 38 -13 497 -13 530 -1 14 6 35 20 46 32 21 23 21 24 21 821 l0 798 203 0
c322 0 317 -4 317 246 l0 174 -29 32 -29 33 -232 3 -232 3 6 71 c10 98 41 192
77 233 17 19 56 47 87 62 51 25 70 28 174 32 110 3 118 5 150 31 l33 28 3 168
c4 194 -4 236 -48 259 -37 19 -300 19 -441 0z"/>
<path d="M6061 13569 c-12 -11 -26 -32 -32 -46 -12 -33 -12 -2043 0 -2076 6
-14 20 -35 32 -46 22 -20 33 -21 265 -21 223 0 244 1 265 19 l24 19 6 659 c4
501 8 668 18 698 43 132 121 199 267 230 130 28 340 13 421 -28 42 -22 90 -72
113 -118 47 -91 50 -135 50 -782 0 -663 0 -660 56 -686 16 -7 105 -11 259 -11
231 0 234 0 261 24 l28 23 6 689 5 689 27 51 c36 69 94 117 170 140 87 26 319
27 393 1 108 -37 157 -107 175 -248 6 -50 10 -330 10 -697 0 -420 3 -620 11
-634 22 -41 65 -48 299 -48 249 0 273 5 284 61 10 49 6 1562 -4 1675 -16 178
-80 291 -211 373 -130 81 -221 100 -496 108 -322 9 -547 -19 -679 -84 -50 -24
-124 -92 -149 -138 -10 -16 -15 -13 -47 32 -98 137 -282 193 -633 193 -391 0
-519 -37 -617 -180 l-17 -25 0 46 c-1 70 -11 106 -37 134 l-23 25 -239 0
c-228 0 -239 -1 -261 -21z"/>
<path d="M1412 13569 c-57 -17 -67 23 137 -509 39 -102 98 -255 131 -340 68
-172 194 -501 263 -685 127 -338 229 -584 250 -603 41 -38 70 -42 338 -42 287
0 314 5 347 60 11 17 35 74 55 128 144 394 203 557 251 692 30 85 105 292 166
460 251 686 280 767 280 803 0 42 -49 49 -314 45 -198 -3 -236 -6 -263 -21
-18 -9 -37 -26 -42 -36 -11 -20 -133 -360 -246 -686 -156 -452 -229 -654 -235
-650 -6 4 -142 371 -280 760 -83 234 -193 528 -211 568 -26 58 -48 62 -334 64
-149 1 -274 -2 -293 -8z"/>
<path d="M9734 13566 c-69 -30 -64 50 -64 -1091 0 -937 1 -1033 16 -1054 32
-45 66 -51 314 -51 254 0 292 7 310 55 15 39 14 2066 -1 2099 -23 50 -56 56
-311 56 -174 -1 -241 -4 -264 -14z"/>
<path d="M12241 13572 c-13 -4 -33 -19 -44 -33 l-19 -26 103 -254 c56 -140
116 -292 134 -339 27 -73 154 -390 527 -1320 l70 -175 -12 -60 c-23 -115 -74
-186 -165 -226 -40 -18 -75 -23 -173 -27 -104 -4 -128 -8 -154 -26 -44 -30
-50 -63 -46 -269 l3 -179 34 -30 34 -30 216 5 c175 4 231 8 292 25 159 43 275
117 364 233 71 91 200 360 265 549 12 35 398 1071 598 1605 209 559 198 520
168 550 -34 34 -67 37 -308 33 l-215 -3 -36 -28 c-21 -15 -43 -40 -51 -55 -16
-31 -97 -247 -149 -397 -19 -55 -58 -161 -85 -235 -28 -74 -92 -247 -142 -385
-51 -137 -95 -256 -99 -264 -5 -8 -21 20 -44 80 -20 52 -72 189 -116 304 -44
116 -109 284 -144 375 -35 91 -92 242 -126 337 -73 198 -88 225 -133 250 -29
16 -63 18 -278 20 -135 1 -256 -2 -269 -5z"/>
<path d="M4680 13560 c-264 -17 -519 -81 -709 -180 -133 -69 -215 -131 -219
-163 -3 -21 22 -76 89 -200 120 -225 133 -239 189 -200 80 57 243 136 350 171
157 51 254 65 425 59 264 -8 348 -58 362 -215 l5 -59 -218 -6 c-254 -8 -409
-20 -549 -43 -357 -59 -559 -201 -638 -449 -19 -61 -22 -92 -22 -245 0 -152 3
-185 22 -249 58 -195 186 -306 423 -369 86 -23 118 -25 347 -30 442 -8 598 28
692 159 17 22 32 46 35 52 5 9 8 9 12 -1 14 -31 102 -131 135 -155 71 -51 120
-61 296 -62 120 0 165 3 175 13 10 10 14 66 16 214 2 111 1 217 -3 235 -7 37
-44 63 -92 63 -15 0 -37 7 -48 16 -19 14 -20 30 -26 542 -6 479 -8 536 -27
622 -23 108 -42 157 -82 215 -67 98 -175 172 -311 215 -135 42 -406 64 -629
50z m491 -1202 c5 -50 -4 -183 -16 -230 -37 -149 -132 -250 -275 -293 -125
-37 -355 -36 -443 3 -51 23 -92 63 -120 117 -30 57 -31 202 -1 260 49 95 185
132 519 144 334 12 335 12 336 -1z"/>
<path d="M4132 8536 c-102 -28 -118 -35 -151 -71 l-38 -41 -6 -284 c-4 -157
-10 -333 -13 -392 l-7 -106 -86 -7 c-199 -14 -439 -45 -558 -71 -23 -4 -23 -6
-23 -170 0 -129 -3 -165 -12 -161 -354 146 -864 327 -1073 382 -333 87 -738
123 -895 81 -215 -58 -350 -207 -417 -461 -24 -93 -26 -115 -26 -305 0 -113 3
-222 7 -243 l7 -37 3959 0 c3764 0 3960 1 3961 18 1 9 1 43 0 75 -2 49 2 61
23 82 29 29 81 33 125 10 36 -18 41 -31 41 -116 l0 -69 335 0 335 0 0 59 0 58
128 7 c138 7 756 31 1078 42 l201 7 14 -84 15 -84 98 -3 c69 -2 102 1 107 9 4
7 10 42 14 78 4 36 11 68 15 71 4 3 62 4 129 2 l121 -3 0 -80 0 -79 1780 0
1780 0 -1 28 c0 15 -6 63 -12 107 l-12 80 -105 3 c-76 2 -108 6 -116 16 -7 11
-56 18 -175 26 -90 6 -179 13 -197 16 -57 9 -31 29 46 35 92 9 102 13 102 42
0 21 -6 25 -46 31 -26 3 -60 6 -75 6 -18 0 -29 5 -29 14 0 15 34 21 165 31
121 9 127 11 123 43 -3 26 -6 28 -131 51 -102 20 -127 28 -125 40 3 16 11 17
176 37 33 4 42 9 42 24 0 10 -8 21 -17 24 -10 2 -70 19 -133 36 -157 42 -759
205 -843 229 -79 22 -58 24 -382 -54 -104 -25 -260 -62 -345 -83 -139 -34
-155 -40 -158 -60 -2 -12 0 -22 5 -23 4 0 20 -2 35 -3 34 -2 50 -17 54 -51 2
-19 -3 -29 -15 -32 -20 -5 -47 -61 -35 -73 8 -7 68 -16 319 -49 41 -5 50 -10
50 -26 0 -16 -8 -21 -40 -25 -37 -5 -40 -8 -40 -35 0 -28 3 -31 50 -40 44 -10
50 -14 53 -38 l3 -27 -195 0 c-183 0 -197 -1 -216 -20 -11 -11 -20 -27 -20
-35 0 -18 -27 -30 -92 -39 -47 -7 -47 -7 -56 26 -6 23 -15 34 -31 36 -13 2
-26 14 -33 30 -16 42 -174 498 -234 677 -29 88 -88 259 -130 380 -107 309
-131 384 -139 429 -7 42 -65 111 -87 104 -27 -9 -33 -38 -15 -69 9 -17 17 -36
17 -43 0 -15 -122 -94 -335 -216 -47 -27 -472 -282 -545 -327 -36 -22 -144
-86 -240 -143 -96 -56 -191 -113 -210 -125 -19 -12 -87 -52 -150 -90 -63 -37
-131 -78 -150 -90 -40 -25 -375 -225 -495 -295 -44 -26 -129 -77 -188 -114
-60 -36 -113 -66 -118 -66 -5 0 -9 71 -9 163 l1 162 29 39 c27 35 30 48 30
108 0 68 0 69 -31 80 -17 6 -34 21 -40 35 -5 13 -9 85 -9 159 0 83 -4 134 -10
134 -5 0 -10 -7 -10 -15 0 -8 -7 -15 -15 -15 -9 0 -15 9 -15 24 0 31 -30 44
-37 16 -7 -28 -23 -25 -23 4 0 22 -16 36 -41 36 -5 0 -9 -9 -9 -20 0 -29 -38
-27 -42 3 -2 18 -10 23 -40 25 -32 3 -38 0 -38 -16 0 -11 -7 -23 -16 -26 -23
-9 -24 -8 -24 19 0 15 -6 25 -14 25 -30 0 -46 -13 -46 -36 0 -29 -16 -32 -23
-3 -5 17 -9 19 -25 10 -11 -6 -23 -22 -26 -36 -7 -27 -26 -35 -26 -10 0 8 -4
15 -10 15 -21 0 -30 -44 -30 -144 0 -64 -4 -106 -10 -106 -5 0 -10 7 -10 15 0
10 -10 15 -30 15 -20 0 -30 -5 -30 -15 0 -8 -4 -15 -10 -15 -5 0 -10 7 -10 15
0 10 -10 15 -30 15 -18 0 -33 -6 -36 -15 -4 -8 -10 -15 -15 -15 -5 0 -9 7 -9
15 0 9 -9 15 -25 15 -14 0 -28 -7 -31 -15 -4 -8 -12 -15 -20 -15 -8 0 -14 7
-14 15 0 9 -9 15 -25 15 -15 0 -25 -6 -25 -14 0 -23 -22 -31 -35 -13 -15 21
-61 22 -69 2 -3 -8 -10 -15 -16 -15 -6 0 -10 42 -10 113 0 107 -9 153 -24 128
-11 -18 -26 -13 -26 9 0 10 -9 24 -19 30 -26 14 -31 13 -31 -6 0 -24 -24 -11
-30 17 -4 16 -14 25 -32 27 -20 2 -27 -2 -32 -23 -8 -33 -38 -30 -46 5 -8 35
-52 35 -60 1 -7 -31 -30 -40 -30 -12 0 25 -14 34 -40 26 -13 -4 -20 -15 -20
-31 0 -13 -4 -24 -10 -24 -5 0 -10 6 -10 14 0 38 -47 27 -52 -12 -3 -28 -28
-44 -28 -17 0 10 -7 15 -17 13 -16 -3 -18 -20 -21 -156 l-3 -153 -28 -10 c-26
-9 -29 -14 -34 -77 -5 -64 -4 -69 29 -114 l34 -46 -2 -219 -3 -218 -207 -3
c-189 -2 -211 -1 -263 19 l-56 21 25 31 c79 98 187 272 205 332 25 80 24 81
-83 166 -258 204 -603 351 -1016 435 -30 6 -32 8 -15 15 58 23 308 -4 465 -51
225 -66 438 -167 653 -312 49 -33 91 -57 93 -55 8 8 -89 119 -175 199 -144
135 -333 245 -506 292 -49 14 -123 38 -163 55 -182 76 -362 114 -542 115 -152
0 -229 -17 -355 -79 -146 -71 -276 -198 -347 -339 -17 -35 -62 -94 -103 -137
-103 -108 -199 -281 -221 -396 -8 -44 -118 -256 -127 -246 -4 3 -8 153 -8 332
-1 179 -5 400 -8 491 l-6 165 -68 7 c-75 7 -111 25 -135 69 -21 36 -43 45 -58
24 -11 -15 -27 -15 -211 0 -109 10 -202 22 -208 27 -6 6 -9 86 -7 211 l2 202
-57 46 c-61 49 -64 49 -313 83 -14 2 -76 -10 -138 -28z m7918 -153 c0 -5 -15
-16 -33 -26 l-32 -17 30 25 c33 27 35 28 35 18z m-71 -81 c-41 -27 -97 -62
-125 -78 -119 -67 -224 -130 -482 -287 -151 -92 -275 -167 -277 -167 -2 0
-131 -77 -287 -172 -297 -180 -388 -233 -388 -225 0 3 19 16 43 30 23 13 170
102 327 197 157 95 301 182 320 193 35 19 145 86 233 140 26 16 45 32 43 35
-3 3 -65 -31 -138 -75 -73 -45 -149 -90 -168 -101 -36 -20 -328 -196 -530
-319 -63 -38 -135 -81 -160 -95 -25 -14 -108 -64 -185 -110 -566 -343 -575
-348 -575 -333 0 2 37 26 83 53 45 27 197 119 337 204 140 85 264 160 275 166
40 23 735 437 895 534 183 110 183 110 256 156 29 17 56 32 59 32 3 0 33 18
66 40 33 22 62 40 65 40 2 0 23 12 45 26 23 14 43 24 45 22 2 -2 -80 -55 -181
-117 -102 -63 -183 -116 -181 -119 4 -4 231 128 361 210 90 56 281 167 289
168 6 0 -24 -22 -65 -48z m-19 21 c-56 -40 -184 -113 -188 -108 -7 7 -7 7 78
53 41 23 84 48 95 56 11 9 24 16 30 16 5 0 -2 -8 -15 -17z m60 -26 c-59 -39
-116 -71 -104 -59 13 16 116 80 129 81 5 1 -6 -9 -25 -22z m10 -21 c0 -7 -102
-67 -107 -63 -2 3 20 19 49 36 56 33 58 33 58 27z m-13 -46 c-14 -11 -28 -20
-31 -20 -4 0 -100 -57 -214 -126 -372 -228 -426 -260 -472 -286 -48 -27 -535
-321 -560 -338 -8 -6 -71 -43 -140 -84 -102 -59 -776 -464 -897 -538 -18 -11
-33 -15 -33 -10 0 5 42 35 93 65 256 153 534 320 945 569 249 150 515 309 590
354 75 45 268 160 427 257 260 158 365 214 292 157z m-132 -40 c-46 -31 -469
-289 -660 -402 -93 -55 -215 -129 -270 -163 -55 -34 -190 -115 -300 -180 -110
-65 -279 -166 -375 -225 -359 -219 -652 -391 -656 -387 -7 6 11 18 131 89 61
36 252 151 425 255 173 104 320 192 325 194 35 14 207 123 199 126 -9 3 -133
-67 -194 -110 -13 -9 -29 -17 -35 -17 -15 0 39 34 365 230 336 202 329 198
315 182 -5 -6 -82 -53 -170 -106 -243 -145 -277 -167 -272 -172 3 -3 112 59
242 137 130 78 232 145 226 148 -6 4 33 33 87 66 53 32 108 66 122 74 13 9 21
11 17 5 -4 -7 -54 -40 -112 -74 -98 -58 -129 -81 -87 -66 17 7 222 130 521
312 91 56 170 102 176 103 5 0 -4 -8 -20 -19z m120 -5 c-16 -13 -33 -24 -36
-25 -6 0 -204 -119 -479 -286 -63 -39 -239 -144 -390 -234 -247 -147 -385
-230 -505 -303 -22 -14 -182 -109 -355 -212 -173 -104 -354 -213 -402 -243
-49 -29 -93 -52 -100 -50 -13 5 -14 4 712 438 113 68 243 147 290 175 47 29
101 62 120 73 19 10 132 78 250 149 118 71 251 151 295 177 44 27 197 119 340
206 242 148 332 194 260 135z m216 -280 c192 -659 286 -990 282 -997 -2 -4
-63 -6 -136 -3 -73 3 -283 10 -467 16 -298 9 -336 8 -346 -6 -9 -12 -32 -15
-103 -15 -50 0 -91 4 -91 8 0 5 35 51 77 103 342 419 585 828 669 1121 10 37
22 64 26 60 4 -4 44 -133 89 -287z m-391 281 c0 -2 -7 -7 -16 -10 -8 -3 -12
-2 -9 4 6 10 25 14 25 6z m-45 -25 c-14 -14 -325 -201 -333 -201 -8 0 53 39
213 137 119 71 138 82 120 64z m230 0 c-5 -9 -116 -79 -195 -124 -48 -27 -309
-186 -340 -207 -14 -10 -45 -27 -69 -40 -24 -12 -49 -26 -55 -31 -6 -5 -107
-67 -224 -137 -117 -70 -227 -136 -245 -147 -19 -11 -91 -54 -161 -95 -149
-88 -112 -66 -446 -267 -449 -270 -490 -294 -490 -280 0 4 149 98 195 123 42
22 1283 768 1332 800 28 19 54 34 58 34 3 0 85 49 183 109 284 174 446 271
455 271 5 0 6 -4 2 -9z m-7 -43 c-4 -11 -191 -126 -698 -429 -80 -48 -221
-132 -313 -188 -93 -55 -187 -112 -210 -125 -23 -12 -188 -111 -367 -218 -549
-328 -562 -336 -546 -310 4 7 39 30 79 53 104 61 1565 936 1742 1044 83 51
164 100 180 109 17 9 50 30 75 46 50 32 64 36 58 18z m-33 -62 c-31 -21 -325
-200 -475 -289 -74 -43 -147 -87 -162 -96 -15 -9 -69 -41 -120 -71 -51 -30
-157 -94 -236 -142 -79 -48 -145 -88 -148 -88 -5 0 -287 -170 -374 -225 -19
-12 -102 -62 -185 -111 -82 -48 -190 -112 -239 -141 -104 -63 -141 -67 -42 -5
37 23 69 42 72 42 2 0 57 32 122 72 64 39 164 99 222 133 58 34 164 98 235
141 72 44 144 87 160 95 32 16 365 215 425 254 19 12 103 62 185 110 83 49
184 109 225 134 278 168 335 201 344 201 6 0 2 -6 -9 -14z m-15 -46 c-14 -11
-173 -108 -355 -216 -181 -108 -346 -206 -365 -219 -38 -24 -302 -182 -335
-199 -11 -6 -102 -61 -203 -121 -232 -140 -222 -133 -322 -192 -47 -28 -107
-64 -135 -80 -140 -86 -240 -142 -244 -138 -6 7 -33 -9 434 270 237 141 554
332 705 423 151 90 338 202 415 247 77 45 199 118 270 163 72 44 137 81 145
81 10 0 6 -6 -10 -19z m310 -25 c0 -5 -5 -3 -10 5 -5 8 -10 20 -10 25 0 6 5 3
10 -5 5 -8 10 -19 10 -25z m-322 -16 c-4 -12 -47 -38 -638 -389 -387 -230
-494 -294 -835 -498 -317 -189 -392 -232 -407 -232 -14 0 85 66 164 109 26 14
129 76 230 136 100 61 189 113 198 118 8 4 27 15 42 25 15 9 75 46 135 81 59
36 185 110 278 166 94 56 260 155 370 220 293 174 429 256 440 266 13 13 27
11 23 -2z m351 -73 c-1 -15 -28 46 -28 64 0 8 6 0 14 -19 8 -18 15 -38 14 -45z
m-859 54 c0 -5 -5 -10 -11 -10 -5 0 -7 5 -4 10 3 6 8 10 11 10 2 0 4 -4 4 -10z
m490 -30 c0 -5 -19 -19 -41 -31 -23 -11 -47 -25 -53 -30 -6 -6 -111 -69 -233
-142 -296 -176 -568 -338 -677 -405 -49 -30 -103 -62 -120 -72 -32 -18 -39
-22 -416 -249 -214 -129 -272 -158 -255 -131 3 5 38 28 78 51 81 47 618 367
687 409 25 16 61 37 81 48 20 11 186 110 370 219 414 248 573 342 577 343 1 0
2 -4 2 -10z m-30 -54 c-8 -7 -85 -55 -170 -106 -237 -142 -485 -292 -533 -322
-23 -15 -51 -32 -62 -38 -11 -6 -35 -19 -53 -30 -18 -11 -101 -61 -185 -112
-84 -50 -219 -132 -302 -183 -185 -113 -374 -225 -380 -225 -3 0 -5 3 -5 8 0
9 32 28 425 263 176 105 336 201 355 213 19 13 154 94 300 181 146 88 342 205
435 262 160 96 209 121 175 89z m460 -141 c29 -82 56 -163 61 -180 4 -16 53
-160 108 -320 98 -282 112 -330 91 -309 -10 10 -320 938 -320 958 0 18 7 1 60
-149z m-475 96 c-9 -9 -162 -102 -423 -260 -52 -31 -110 -66 -130 -78 -21 -13
-64 -39 -97 -58 -33 -20 -67 -40 -75 -45 -45 -29 -246 -150 -318 -192 -46 -26
-107 -63 -135 -82 -29 -18 -110 -68 -182 -109 -71 -42 -152 -90 -179 -107 -27
-17 -54 -29 -59 -27 -9 3 114 87 127 87 3 0 83 48 178 106 95 59 283 173 418
254 213 128 557 337 785 476 64 39 114 58 90 35z m448 -196 c5 -20 4 -25 -2
-15 -9 16 -52 165 -50 178 1 8 43 -121 52 -163z m-504 131 c-2 -2 -71 -45
-154 -96 -82 -51 -161 -100 -175 -109 -21 -14 -234 -144 -280 -171 -8 -5 -143
-87 -300 -183 -461 -281 -555 -337 -569 -337 -24 0 -1 17 106 80 127 74 427
255 463 279 14 10 169 103 345 209 176 105 374 225 440 265 66 40 122 72 124
70 2 -2 2 -5 0 -7z m1 -31 c0 -3 -24 -19 -52 -36 -29 -17 -83 -49 -120 -72
-37 -23 -111 -69 -165 -102 -54 -33 -128 -79 -165 -102 -36 -24 -69 -43 -73
-43 -3 0 -36 -20 -73 -43 -37 -24 -106 -68 -155 -98 -48 -30 -129 -80 -180
-111 -50 -31 -108 -66 -127 -78 -19 -11 -47 -28 -62 -38 -15 -9 -64 -39 -110
-66 -46 -27 -93 -56 -105 -64 -13 -8 -23 -10 -23 -4 0 8 192 132 204 132 3 0
60 35 129 78 282 175 395 244 490 301 109 64 105 61 179 109 37 23 70 42 72
42 3 0 26 14 51 31 70 47 269 168 278 169 4 0 7 -2 7 -5z m-32 -56 c-2 -7 -56
-44 -118 -82 -383 -234 -479 -293 -600 -368 -74 -45 -162 -99 -195 -120 -224
-139 -380 -229 -394 -227 -8 2 93 69 224 150 132 80 287 176 345 212 58 36
169 103 246 150 78 47 218 133 310 191 92 58 172 105 177 105 5 0 7 -5 5 -11z
m-10269 -446 c147 -452 147 -452 133 -438 -12 12 -332 813 -332 831 0 2 15 4
34 4 l35 0 130 -397z m10215 368 c-19 -17 -194 -127 -462 -287 -143 -85 -184
-110 -425 -257 -87 -54 -160 -97 -162 -97 -3 0 -34 -18 -70 -40 -36 -22 -65
-36 -65 -32 0 4 31 25 68 46 37 21 83 49 102 62 59 38 402 250 635 392 121 73
258 157 305 186 84 52 112 63 74 27z m-10432 -152 c124 -353 189 -551 184
-556 -11 -11 -42 58 -135 299 -54 139 -112 287 -129 328 -28 68 -29 76 -14 88
9 7 21 11 27 9 5 -2 36 -77 67 -168z m260 162 c20 -7 32 -33 71 -152 26 -79
77 -233 112 -343 59 -179 70 -236 46 -236 -4 0 -33 60 -64 133 -30 72 -99 234
-151 359 -53 125 -96 232 -96 238 0 12 50 13 82 1z m10907 -448 c39 -128 71
-235 71 -238 0 -3 -4 -5 -10 -5 -8 0 -28 54 -50 135 -4 17 -20 71 -35 120 -15
50 -40 140 -56 200 -15 61 -35 130 -44 154 -8 24 -15 51 -14 60 1 17 26 -59
138 -426z m-10684 414 l50 -12 73 -200 c117 -319 152 -418 152 -432 0 -9 -17
-13 -53 -13 -62 0 -56 -9 -137 199 -27 69 -76 194 -110 276 -34 83 -66 160
-71 173 -8 20 -6 22 19 21 15 0 50 -6 77 -12z m-623 -58 c61 -175 158 -482
154 -486 -7 -7 -22 25 -80 178 -30 79 -73 189 -94 244 -29 72 -37 104 -29 113
17 21 30 9 49 -49z m10542 27 c-5 -14 -79 -62 -264 -171 -128 -76 -303 -182
-470 -285 -152 -94 -329 -197 -352 -206 -10 -3 -18 -2 -18 2 0 5 107 73 238
151 130 78 338 203 462 279 375 227 403 244 406 244 2 0 1 -6 -2 -14z m-9566
-68 c50 -16 66 -26 74 -47 38 -97 171 -481 175 -506 4 -26 -1 -33 -36 -52 -48
-28 -72 -29 -99 -5 -11 9 -57 105 -102 212 -45 107 -106 250 -135 317 -29 67
-51 124 -48 126 5 6 64 -10 171 -45z m-1049 -64 c16 -43 45 -121 65 -171 35
-91 45 -127 28 -107 -8 8 -114 254 -141 327 -12 31 -5 55 11 39 5 -5 22 -44
37 -88z m10561 57 c0 -14 -53 -52 -155 -111 -49 -29 -103 -61 -120 -71 -16
-10 -43 -26 -60 -35 -16 -9 -141 -84 -278 -166 -136 -81 -249 -148 -253 -148
-3 0 -22 -11 -42 -25 -20 -14 -46 -25 -57 -25 -12 0 4 15 45 39 36 22 83 50
105 64 355 217 800 485 808 486 4 1 7 -3 7 -8z m-10596 -166 c40 -116 47 -150
31 -133 -5 5 -45 97 -92 210 -16 37 -11 80 7 62 5 -5 29 -68 54 -139z m1490
19 c77 -32 147 -65 157 -74 15 -13 122 -280 115 -288 -2 -1 -18 4 -37 12 -30
13 -36 13 -52 -2 -16 -14 -19 -13 -45 11 -16 15 -31 27 -36 27 -4 0 -24 -11
-44 -25 -20 -14 -43 -25 -50 -25 -7 0 -46 70 -88 158 -41 86 -87 184 -103 217
-16 33 -27 63 -25 67 3 4 19 1 37 -6 18 -8 95 -40 171 -72z m9026 46 c-43 -33
-777 -471 -799 -477 -38 -10 -22 11 32 41 47 26 120 70 507 301 182 109 264
155 275 155 5 0 -1 -9 -15 -20z m-1170 5 c0 -2 -13 -11 -30 -20 -38 -19 -40
-11 -2 9 31 17 32 18 32 11z m7 -28 c-63 -37 -213 -128 -407 -246 -243 -149
-372 -223 -377 -218 -2 3 18 17 44 32 143 82 204 119 209 127 10 16 -12 8 -57
-20 -70 -45 -77 -48 -59 -29 8 9 41 31 72 49 144 84 179 105 273 163 55 35
117 72 138 84 21 12 50 29 65 39 14 9 23 11 19 5 -4 -7 -37 -29 -72 -49 -36
-19 -67 -40 -71 -45 -12 -20 -6 -17 204 108 20 13 42 23 47 23 6 0 -7 -10 -28
-23z m-9423 -96 c15 -40 25 -76 22 -78 -4 -4 -66 149 -66 164 0 19 20 -19 44
-86z m10531 39 c-16 -16 -32 -30 -37 -30 -5 0 -25 -11 -46 -24 -48 -30 -449
-263 -526 -305 -108 -58 -78 -27 41 44 65 38 219 131 343 207 124 75 231 137
239 138 9 0 4 -11 -14 -30z m1010 -193 c31 -93 54 -171 51 -174 -3 -3 -10 5
-16 18 -12 28 -100 314 -100 325 0 19 12 -13 65 -169z m-11594 127 c5 -15 8
-29 5 -31 -2 -2 -8 10 -14 26 -13 38 -5 41 9 5z m10510 -18 c-20 -24 -530
-310 -538 -302 -6 6 19 22 102 68 135 75 399 229 410 239 5 5 15 9 23 9 11 0
12 -3 3 -14z m-10487 -42 c3 -8 2 -12 -4 -9 -6 3 -10 10 -10 16 0 14 7 11 14
-7z m2075 -72 c47 -26 103 -57 124 -67 70 -36 97 -75 61 -89 -9 -3 -52 -6 -97
-6 -93 0 -79 -12 -152 123 -26 49 -41 87 -35 87 7 0 51 -22 99 -48z m8323 11
c-17 -21 -66 -72 -109 -114 l-78 -77 -110 -6 -110 -6 50 31 c79 49 369 209
378 209 5 0 -5 -17 -21 -37z m-4232 -133 c0 -17 -81 -195 -96 -210 -12 -12
-14 -12 -14 1 0 22 58 189 71 205 13 16 39 19 39 4z m-1 -105 c-24 -58 -49
-105 -56 -105 -7 0 7 42 34 103 52 118 53 120 60 113 3 -3 -14 -53 -38 -111z
m49 7 c-41 -99 -53 -120 -63 -110 -6 6 61 183 78 205 5 7 13 11 17 8 5 -3 -10
-49 -32 -103z m36 -5 c-39 -95 -54 -122 -54 -96 0 23 83 214 88 200 2 -7 -13
-54 -34 -104z m46 33 c-19 -38 -35 -68 -37 -66 -2 2 10 36 28 75 18 39 34 69
37 66 3 -3 -9 -37 -28 -75z m25 -23 c-25 -53 -50 -99 -55 -102 -5 -3 6 28 25
70 47 103 66 138 71 132 2 -2 -16 -47 -41 -100z m2465 99 c0 -2 -7 -7 -16 -10
-8 -3 -12 -2 -9 4 6 10 25 14 25 6z m-2758 -32 c-2 -16 -32 -121 -47 -171 -5
-14 -45 -18 -45 -4 0 14 47 156 59 180 14 26 37 23 33 -5z m57 -31 c-45 -127
-62 -163 -75 -163 -19 0 -18 9 17 121 28 89 33 99 55 99 l24 0 -21 -57z m301
18 c-24 -47 -45 -65 -30 -26 16 43 30 65 41 65 5 0 0 -18 -11 -39z m-410 22
c0 -18 -54 -159 -66 -172 -27 -29 -26 17 1 99 21 63 31 80 46 80 10 0 19 -3
19 -7z m2770 3 c0 -7 -72 -47 -77 -42 -3 2 12 14 34 25 42 22 43 23 43 17z
m-2833 -18 c-3 -7 -16 -43 -28 -80 -18 -52 -27 -68 -42 -68 -22 0 -20 14 14
105 15 42 25 55 41 55 12 0 18 -5 15 -12z m-77 -52 c-25 -73 -38 -96 -55 -96
-18 0 -18 -1 1 57 30 87 33 93 53 93 20 0 20 -1 1 -54z m-51 32 c-1 -30 -45
-132 -54 -128 -11 6 -10 13 11 88 9 32 20 52 29 52 8 0 15 -6 14 -12z m-57 -4
c9 -8 -30 -126 -44 -135 -24 -15 -27 6 -12 66 17 64 37 89 56 69z m-66 -41
c-22 -88 -28 -103 -43 -103 -13 0 -14 9 -8 58 7 56 16 72 44 72 9 0 11 -8 7
-27z m-69 -39 c-5 -50 -18 -70 -37 -59 -15 9 -5 86 13 97 24 15 29 7 24 -38z
m-60 -21 c-10 -57 -47 -69 -47 -14 0 30 16 51 38 51 11 0 13 -9 9 -37z m-69
-25 c-4 -41 -28 -50 -28 -10 0 16 3 32 7 35 15 16 24 5 21 -25z m-48 -18 c0
-27 -3 -30 -30 -30 -37 0 -38 12 -2 39 34 26 32 26 32 -9z"/>
<path d="M10055 7147 c-137 -83 -174 -107 -160 -107 6 0 51 25 100 55 50 29
114 68 143 84 49 29 62 41 45 41 -5 0 -62 -33 -128 -73z"/>
<path d="M5656 5989 c-207 -18 -329 -65 -398 -155 -24 -30 -46 -54 -50 -54 -5
0 -8 36 -8 80 0 75 -2 83 -26 105 l-27 25 -244 0 -245 0 -29 -29 -29 -29 0
-1044 c0 -1147 -4 -1070 60 -1103 23 -12 72 -15 240 -15 228 0 265 7 288 53 8
15 13 209 15 642 3 440 8 636 16 674 48 212 195 298 491 289 120 -4 141 -7
191 -31 73 -35 123 -87 151 -156 23 -56 23 -60 28 -732 5 -734 2 -694 61 -725
41 -21 438 -20 479 1 63 33 60 -6 60 730 0 692 -6 832 -40 987 -55 244 -207
406 -435 463 -134 33 -345 42 -549 24z"/>
<path d="M7859 5989 c-109 -9 -240 -39 -297 -68 -21 -11 -62 -45 -90 -76 -28
-31 -54 -57 -58 -58 -4 -1 -8 21 -9 48 -2 94 -5 106 -30 130 l-24 25 -246 0
-246 0 -24 -25 -25 -24 0 -1051 c0 -702 3 -1058 10 -1071 24 -43 57 -49 278
-49 225 0 260 6 289 48 17 25 18 67 20 642 2 395 7 636 14 675 22 118 86 202
191 250 78 36 170 48 313 43 110 -4 126 -8 187 -37 75 -35 108 -71 141 -153
22 -52 22 -63 27 -729 5 -637 6 -678 23 -697 36 -39 64 -43 296 -40 l223 3 29
33 29 32 0 705 c0 859 -6 935 -96 1123 -67 140 -188 239 -356 291 -124 37
-341 49 -569 30z"/>
<path d="M983 5979 c-18 -5 -41 -22 -50 -36 -17 -25 -18 -95 -21 -1057 -2
-717 1 -1038 8 -1056 23 -56 44 -60 328 -60 l261 0 28 24 28 24 6 609 c6 658
7 672 62 766 73 124 227 185 487 193 146 5 194 19 204 58 3 11 6 126 6 254 l0
233 -25 24 c-21 22 -33 25 -102 25 -239 0 -475 -65 -573 -158 -24 -23 -46 -42
-50 -42 -3 0 -6 31 -6 70 1 66 -1 72 -32 102 l-32 33 -248 2 c-137 1 -261 -2
-279 -8z"/>
<path d="M2475 5983 c-11 -3 -32 -17 -47 -31 l-28 -26 0 -635 c0 -629 4 -737
36 -896 47 -235 163 -399 349 -492 154 -78 284 -103 580 -110 345 -8 535 19
710 101 231 109 327 263 382 608 20 133 32 1348 14 1410 -21 67 -38 73 -266
76 -226 4 -275 -3 -303 -45 -16 -25 -17 -81 -22 -698 -5 -622 -6 -674 -24
-720 -33 -89 -96 -150 -188 -182 -61 -22 -228 -33 -330 -22 -148 15 -254 79
-297 180 -37 86 -44 232 -37 839 6 516 5 557 -12 590 -26 53 -56 59 -292 58
-113 0 -214 -2 -225 -5z"/>
<path d="M10060 5979 c-521 -26 -869 -244 -988 -619 -44 -137 -57 -252 -57
-485 0 -188 4 -237 23 -340 69 -356 255 -566 608 -684 224 -75 575 -98 909
-60 115 13 260 52 351 93 159 74 324 183 324 215 0 22 -198 288 -246 331 -19
16 -45 30 -57 30 -13 0 -63 -26 -113 -57 -145 -92 -237 -124 -409 -143 -186
-20 -380 -5 -498 40 -64 24 -142 81 -181 133 -34 44 -75 145 -83 202 l-6 45
812 0 811 0 0 218 c0 320 -24 472 -102 651 -37 85 -52 106 -128 182 -75 75
-100 93 -191 137 -199 96 -426 129 -779 111z m377 -495 c69 -26 137 -75 166
-121 28 -45 53 -125 62 -205 l7 -58 -516 0 -516 0 0 24 c0 42 37 144 70 196
55 86 132 135 263 170 100 27 385 23 464 -6z"/>
<path d="M11460 5977 c-24 -8 -41 -23 -52 -47 -17 -33 -18 -104 -18 -1058 0
-1111 -2 -1064 55 -1090 18 -8 105 -12 283 -12 278 0 282 1 311 57 8 15 11
191 11 590 0 345 4 593 11 632 36 227 193 325 539 338 152 6 155 6 182 34 l28
27 0 242 0 241 -25 24 c-22 23 -32 25 -107 25 -246 0 -469 -64 -578 -166 l-50
-47 0 76 c0 71 -2 79 -29 109 l-29 33 -249 2 c-176 2 -258 -1 -283 -10z"/>
<path d="M13690 5963 c-179 -18 -363 -67 -474 -126 -76 -40 -185 -146 -219
-213 -75 -148 -87 -382 -28 -549 38 -109 121 -201 241 -268 154 -87 275 -116
730 -177 129 -17 260 -38 290 -47 113 -31 147 -72 138 -165 -4 -42 -11 -57
-36 -80 -59 -51 -122 -62 -367 -63 -191 0 -234 3 -328 23 -128 27 -258 73
-419 150 -102 48 -120 53 -134 41 -9 -7 -61 -103 -115 -211 -77 -155 -97 -203
-90 -221 10 -28 248 -149 371 -190 208 -67 453 -93 785 -84 454 13 689 75 837
221 86 84 126 204 135 401 7 157 -5 244 -47 333 -54 116 -162 206 -318 267
-124 48 -307 82 -682 130 -243 30 -336 60 -365 115 -27 53 -16 126 24 157 56
44 260 66 494 52 204 -11 308 -30 451 -79 64 -22 126 -40 139 -40 32 0 61 33
92 105 15 33 36 80 47 105 66 145 78 174 78 199 0 38 -24 56 -126 97 -219 87
-482 125 -840 122 -126 0 -245 -3 -264 -5z"/>
<path d="M11350 3531 c0 -5 41 -48 92 -95 78 -73 97 -86 126 -86 39 0 42 -7
-41 95 -72 87 -83 95 -133 95 -24 0 -44 -4 -44 -9z"/>
<path d="M1315 3296 c-135 -28 -255 -116 -311 -231 -26 -55 -29 -69 -29 -165
0 -99 2 -110 33 -172 36 -74 114 -153 184 -187 151 -72 352 -68 499 11 60 32
159 126 159 151 0 8 -21 28 -47 45 l-47 31 -57 -55 c-86 -81 -131 -98 -259
-99 -99 0 -109 2 -172 33 -106 52 -158 132 -158 242 0 179 147 292 361 277 93
-6 168 -37 219 -90 19 -20 39 -37 43 -37 17 0 97 61 97 75 0 20 -97 103 -153
132 -94 47 -241 63 -362 39z"/>
<path d="M13191 3294 c-137 -29 -246 -109 -302 -221 -32 -65 -34 -73 -34 -173
0 -99 2 -110 33 -172 73 -149 233 -238 427 -238 97 0 177 19 257 62 59 31 158
127 158 153 0 7 -17 24 -37 36 -21 13 -43 27 -50 31 -7 5 -29 -11 -59 -42 -68
-72 -137 -103 -239 -108 -132 -7 -232 32 -304 120 -79 97 -66 252 30 348 65
65 124 85 254 85 88 0 106 -3 155 -27 30 -15 72 -43 93 -63 20 -19 40 -35 43
-35 14 0 94 65 94 76 0 18 -98 103 -150 129 -101 51 -245 66 -369 39z"/>
<path d="M2042 2903 l3 -388 65 0 65 0 0 385 0 385 -68 3 -67 3 2 -388z"/>
<path d="M2432 3281 c-11 -7 -13 -67 -10 -307 l3 -299 28 -51 c35 -63 88 -98
178 -118 128 -30 354 -15 438 28 47 25 88 75 105 130 14 43 16 98 14 336 l-3
285 -65 0 -65 0 -5 -292 c-5 -276 -6 -293 -26 -320 -32 -43 -88 -55 -239 -51
-226 7 -225 6 -225 387 0 236 -2 270 -16 275 -23 9 -97 7 -112 -3z"/>
<path d="M3297 3283 c-4 -3 -7 -30 -7 -59 0 -37 4 -54 15 -58 9 -3 68 -3 132
0 64 2 129 2 145 -1 l28 -7 2 -321 3 -322 65 0 65 0 5 325 5 325 145 2 c80 1
151 2 158 3 9 0 12 16 10 58 l-3 57 -381 3 c-209 1 -383 -1 -387 -5z"/>
<path d="M4336 3263 c-331 -648 -375 -736 -369 -745 6 -10 114 -10 129 0 6 4
31 45 54 92 23 47 48 88 54 92 6 5 94 7 196 5 l185 -2 50 -95 50 -95 59 -3
c32 -2 65 -1 73 2 10 4 -7 44 -65 158 -44 84 -130 252 -192 373 -62 121 -117
226 -123 233 -5 6 -27 12 -48 12 -32 0 -41 -5 -53 -27z m125 -314 c33 -67 58
-123 56 -125 -2 -3 -61 -3 -131 -2 l-126 3 63 122 c34 68 65 123 69 123 5 0
35 -54 69 -121z"/>
<path d="M4720 3231 c0 -48 3 -61 18 -65 9 -3 69 -3 132 -1 63 2 127 1 143 -2
l27 -5 0 -324 0 -324 64 0 c49 0 65 4 70 16 3 9 6 154 6 324 0 302 0 309 21
315 11 4 79 5 152 4 l132 -3 3 62 3 62 -386 0 -385 0 0 -59z"/>
<path d="M6205 3278 c-3 -7 -4 -182 -3 -388 l3 -375 180 -3 c99 -1 212 2 250
8 147 22 271 117 311 236 23 72 24 218 1 280 -39 106 -114 180 -225 222 -63
24 -80 26 -289 30 -181 3 -224 1 -228 -10z m471 -142 c108 -50 162 -146 151
-267 -10 -109 -85 -196 -187 -218 -28 -6 -107 -11 -175 -11 l-125 0 0 260 0
260 143 0 c128 0 147 -2 193 -24z"/>
<path d="M7140 2900 l0 -390 380 0 380 0 0 65 0 65 -310 0 -310 0 0 110 0 110
190 0 190 0 0 65 0 65 -190 0 -190 0 0 85 0 85 293 2 292 3 0 60 0 60 -362 3
-363 2 0 -390z"/>
<path d="M8550 3280 c0 -5 86 -181 190 -390 l191 -381 37 3 37 3 191 380 c106
209 190 383 187 388 -8 13 -130 8 -142 -6 -9 -12 -70 -132 -219 -435 -25 -51
-49 -95 -52 -97 -4 -2 -62 107 -131 242 -169 334 -146 303 -224 303 -36 0 -65
-4 -65 -10z"/>
<path d="M9687 3283 c-7 -11 -155 -300 -281 -546 -58 -115 -104 -213 -100
-218 3 -5 34 -9 69 -9 l63 0 49 98 48 97 194 0 193 0 44 -85 c25 -47 52 -91
61 -97 9 -7 43 -13 76 -13 56 0 59 1 53 23 -5 20 -334 665 -371 730 -13 22
-23 27 -55 27 -21 0 -41 -3 -43 -7z m113 -333 c33 -66 60 -122 60 -125 0 -3
-58 -5 -130 -5 -71 0 -130 3 -130 6 0 14 123 244 131 244 5 0 36 -54 69 -120z"/>
<path d="M10265 3278 c-3 -7 -4 -182 -3 -388 l3 -375 348 -3 347 -2 0 65 0 65
-280 0 -280 0 -2 323 -3 322 -63 3 c-44 2 -64 -1 -67 -10z"/>
<path d="M11085 3278 c-3 -7 -4 -182 -3 -388 l3 -375 378 -3 377 -2 0 65 0 65
-312 2 -313 3 -3 108 -3 107 196 0 195 0 0 65 0 65 -195 0 -196 0 3 83 3 82
298 3 298 2 -3 63 -3 62 -358 3 c-281 2 -359 0 -362 -10z"/>
<path d="M11999 3283 c-1 -6 0 -393 1 -731 l0 -43 63 3 62 3 5 254 5 254 84
-94 c46 -52 107 -119 135 -149 28 -30 87 -95 131 -145 105 -118 114 -125 150
-122 l30 2 3 388 2 387 -65 0 -65 0 0 -249 c0 -138 -3 -252 -7 -254 -5 -3 -57
50 -117 117 -347 386 -346 386 -385 386 -17 0 -31 -3 -32 -7z"/>
<path d="M13920 2900 l0 -391 68 3 67 3 0 385 0 385 -67 3 -68 3 0 -391z"/>
<path d="M14542 3278 c-23 -30 -382 -740 -382 -758 0 -7 22 -10 67 -8 l66 3
47 88 c26 48 51 92 57 98 6 6 83 8 197 7 l188 -3 40 -75 c66 -126 60 -120 133
-120 42 0 65 4 65 11 0 11 -223 453 -337 667 -55 102 -55 102 -93 102 -20 0
-42 -6 -48 -12z m106 -306 c28 -54 56 -110 61 -125 l11 -27 -131 0 c-120 0
-130 1 -125 18 13 36 117 232 125 232 4 0 31 -44 59 -98z"/>
</g>
</svg>
